#tb 0: 1/15
0,          0,          0,        1,   192000, 0x00000000
0,          1,          1,        1,   192000, 0x00000000
0,          2,          2,        1,   192000, 0x00000000
0,          3,          3,        1,   192000, 0x00000000
0,          4,          4,        1,   192000, 0xcd900ccc
0,          5,          5,        1,   192000, 0xfd496438
0,          6,          6,        1,   192000, 0x965f0bf3
0,          7,          7,        1,   192000, 0x378fca5f
0,          8,          8,        1,   192000, 0x5ccd8966
0,          9,          9,        1,   192000, 0x859676f9
0,         10,         10,        1,   192000, 0x820bfb1c
0,         11,         11,        1,   192000, 0x7570cc05
0,         12,         12,        1,   192000, 0xf38bdb06
0,         13,         13,        1,   192000, 0x9b0cbb44
0,         14,         14,        1,   192000, 0x0ed70665
0,         15,         15,        1,   192000, 0xd16de7fc
0,         16,         16,        1,   192000, 0x97afb484
0,         17,         17,        1,   192000, 0x012893f3
0,         18,         18,        1,   192000, 0x742a4b43
0,         19,         19,        1,   192000, 0x309dcd75
0,         20,         20,        1,   192000, 0xed7814ac
0,         21,         21,        1,   192000, 0xdb7de3d7
0,         22,         22,        1,   192000, 0xe18679a3
0,         23,         23,        1,   192000, 0xb1f213f4
0,         24,         24,        1,   192000, 0x33c99b5c
0,         25,         25,        1,   192000, 0xf66c0c91
0,         26,         26,        1,   192000, 0x929cdc73
0,         27,         27,        1,   192000, 0xa723fc3b
0,         28,         28,        1,   192000, 0xe6395ccc
0,         29,         29,        1,   192000, 0x147fbf74
0,         30,         30,        1,   192000, 0x3ec62d28
0,         31,         31,        1,   192000, 0x22104ffb
0,         32,         32,        1,   192000, 0x91f25f58
0,         33,         33,        1,   192000, 0xc91b0e4e
0,         34,         34,        1,   192000, 0x4683df56
0,         35,         35,        1,   192000, 0x8ef8932a
0,         36,         36,        1,   192000, 0xce6c0ec0
0,         37,         37,        1,   192000, 0xcc10e2a0
